<?xml version="1.0" encoding="UTF-8" standalone="no"?><!DOCTYPE svg PUBLIC "-//W3C//DTD SVG 1.1//EN" "http://www.w3.org/Graphics/SVG/1.1/DTD/svg11.dtd"><svg width="100%" height="100%" viewBox="0 0 1250 952" version="1.1" xmlns="http://www.w3.org/2000/svg" xmlns:xlink="http://www.w3.org/1999/xlink" xml:space="preserve" xmlns:serif="http://www.serif.com/" style="fill-rule:evenodd;clip-rule:evenodd;stroke-linejoin:round;stroke-miterlimit:2;"><g><path d="M619.974,365.143c3.094,-3.094 3.094,-8.117 -0,-11.211l-11.211,-11.211c-3.094,-3.094 -8.118,-3.094 -11.211,0l-248.453,248.452c-3.094,3.094 -3.094,8.118 0,11.212l11.211,11.211c3.094,3.093 8.118,3.093 11.211,-0l248.453,-248.453Z" style="fill:#00acd7;"/><g><g><g><g><path d="M461.662,212.639c-0.841,0 -1.051,-0.42 -0.631,-1.051l4.417,-5.679c0.421,-0.631 1.473,-1.052 2.314,-1.052l75.086,0c0.841,0 1.052,0.631 0.631,1.262l-3.575,5.469c-0.421,0.631 -1.473,1.262 -2.104,1.262l-76.138,-0.211Z" style="fill:#00acd7;fill-rule:nonzero;"/></g></g></g><g><g><g><path d="M429.903,231.989c-0.841,0 -1.051,-0.42 -0.631,-1.051l4.417,-5.679c0.421,-0.631 1.472,-1.052 2.314,-1.052l95.908,0c0.841,0 1.262,0.631 1.052,1.262l-1.683,5.048c-0.21,0.841 -1.051,1.262 -1.893,1.262l-99.484,0.21Z" style="fill:#00acd7;fill-rule:nonzero;"/></g></g></g><g><g><g><path d="M480.802,251.339c-0.841,0 -1.052,-0.631 -0.631,-1.262l2.945,-5.258c0.42,-0.631 1.262,-1.262 2.103,-1.262l42.065,0c0.841,0 1.262,0.631 1.262,1.472l-0.421,5.048c0,0.842 -0.841,1.473 -1.472,1.473l-45.851,-0.211Z" style="fill:#00acd7;fill-rule:nonzero;"/></g></g></g><g><g id="CXHf1q_3_"><g><g><path d="M699.12,208.853c-13.25,3.366 -22.294,5.89 -35.335,9.255c-3.155,0.841 -3.365,1.051 -6.099,-2.104c-3.155,-3.575 -5.469,-5.889 -9.885,-7.992c-13.251,-6.52 -26.081,-4.627 -38.069,3.155c-14.302,9.254 -21.664,22.925 -21.454,39.962c0.211,16.826 11.779,30.707 28.394,33.021c14.303,1.893 26.291,-3.155 35.756,-13.881c1.893,-2.314 3.575,-4.838 5.679,-7.783l-40.593,0c-4.417,0 -5.469,-2.734 -3.996,-6.309c2.734,-6.52 7.782,-17.457 10.726,-22.926c0.631,-1.262 2.103,-3.365 5.258,-3.365l76.559,-0c-0.421,5.679 -0.421,11.358 -1.262,17.036c-2.314,15.144 -7.992,29.025 -17.247,41.224c-15.143,19.981 -34.914,32.39 -59.943,35.756c-20.612,2.734 -39.751,-1.262 -56.577,-13.882c-15.564,-11.778 -24.398,-27.342 -26.712,-46.692c-2.734,-22.926 3.997,-43.538 17.878,-61.626c14.933,-19.56 34.704,-31.969 58.891,-36.386c19.771,-3.576 38.7,-1.262 55.737,10.306c11.147,7.361 19.139,17.457 24.397,29.656c1.262,1.893 0.421,2.944 -2.103,3.575Z" style="fill:#00acd7;fill-rule:nonzero;"/></g><g><path d="M768.738,325.164c-19.14,-0.421 -36.597,-5.89 -51.32,-18.509c-12.409,-10.727 -20.191,-24.398 -22.715,-40.593c-3.786,-23.767 2.734,-44.799 17.037,-63.518c15.353,-20.192 33.862,-30.708 58.891,-35.125c21.453,-3.786 41.644,-1.682 59.943,10.727c16.615,11.357 26.921,26.711 29.656,46.902c3.575,28.394 -4.628,51.53 -24.188,71.301c-13.881,14.092 -30.918,22.925 -50.478,26.922c-5.679,1.051 -11.358,1.262 -16.826,1.893Zm50.057,-84.972c-0.21,-2.734 -0.21,-4.838 -0.631,-6.941c-3.785,-20.822 -22.925,-32.6 -42.906,-27.973c-19.56,4.417 -32.18,16.826 -36.807,36.597c-3.786,16.405 4.207,33.021 19.35,39.751c11.568,5.048 23.136,4.417 34.283,-1.262c16.616,-8.623 25.66,-22.084 26.711,-40.172Z" style="fill:#00acd7;fill-rule:nonzero;"/></g></g></g></g></g><g><g><g><g><path d="M84.551,690.559c-0.841,-0 -1.052,-0.421 -0.631,-1.052l4.417,-5.679c0.42,-0.631 1.472,-1.051 2.313,-1.051l75.087,-0c0.841,-0 1.051,0.631 0.631,1.262l-3.576,5.468c-0.421,0.631 -1.472,1.262 -2.103,1.262l-76.138,-0.21Z" style="fill:#00acd7;fill-rule:nonzero;"/></g></g></g><g><g><g><path d="M52.792,709.909c-0.842,-0 -1.052,-0.421 -0.631,-1.052l4.417,-5.679c0.42,-0.631 1.472,-1.051 2.313,-1.051l95.909,-0c0.841,-0 1.262,0.631 1.051,1.261l-1.682,5.048c-0.211,0.842 -1.052,1.262 -1.893,1.262l-99.484,0.211Z" style="fill:#00acd7;fill-rule:nonzero;"/></g></g></g><g><g><g><path d="M103.691,729.259c-0.842,-0 -1.052,-0.631 -0.631,-1.262l2.944,-5.259c0.421,-0.631 1.262,-1.261 2.103,-1.261l42.066,-0c0.841,-0 1.262,0.63 1.262,1.472l-0.421,5.048c-0,0.841 -0.841,1.472 -1.472,1.472l-45.851,-0.21Z" style="fill:#00acd7;fill-rule:nonzero;"/></g></g></g><g><g id="CXHf1q_3_1" serif:id="CXHf1q_3_"><g><g><path d="M322.009,686.773c-13.251,3.365 -22.295,5.889 -35.335,9.254c-3.155,0.841 -3.365,1.052 -6.1,-2.103c-3.154,-3.576 -5.468,-5.889 -9.885,-7.993c-13.25,-6.52 -26.08,-4.627 -38.069,3.155c-14.302,9.255 -21.663,22.926 -21.453,39.962c0.21,16.826 11.778,30.708 28.394,33.021c14.302,1.893 26.291,-3.155 35.755,-13.881c1.893,-2.314 3.576,-4.838 5.679,-7.782l-40.593,-0c-4.417,-0 -5.468,-2.734 -3.996,-6.31c2.734,-6.52 7.782,-17.457 10.727,-22.925c0.631,-1.262 2.103,-3.366 5.258,-3.366l76.558,0c-0.42,5.679 -0.42,11.358 -1.262,17.037c-2.313,15.143 -7.992,29.025 -17.246,41.224c-15.144,19.98 -34.914,32.39 -59.943,35.755c-20.612,2.734 -39.752,-1.262 -56.578,-13.882c-15.564,-11.778 -24.397,-27.342 -26.711,-46.692c-2.734,-22.925 3.996,-43.537 17.878,-61.625c14.933,-19.561 34.703,-31.97 58.891,-36.387c19.77,-3.575 38.7,-1.262 55.736,10.306c11.147,7.362 19.14,17.457 24.398,29.656c1.262,1.893 0.421,2.945 -2.103,3.576Z" style="fill:#00acd7;fill-rule:nonzero;"/></g><g><path d="M391.626,803.083c-19.139,-0.421 -36.596,-5.889 -51.319,-18.509c-12.409,-10.726 -20.191,-24.398 -22.715,-40.593c-3.786,-23.766 2.734,-44.799 17.036,-63.518c15.354,-20.191 33.863,-30.708 58.891,-35.124c21.454,-3.786 41.645,-1.683 59.943,10.726c16.616,11.358 26.922,26.712 29.656,46.903c3.576,28.394 -4.627,51.53 -24.187,71.3c-13.882,14.092 -30.918,22.926 -50.478,26.922c-5.679,1.052 -11.358,1.262 -16.827,1.893Zm50.058,-84.972c-0.21,-2.734 -0.21,-4.837 -0.631,-6.94c-3.786,-20.823 -22.926,-32.601 -42.906,-27.974c-19.561,4.417 -32.18,16.826 -36.807,36.597c-3.786,16.405 4.206,33.021 19.35,39.751c11.567,5.048 23.135,4.417 34.283,-1.261c16.615,-8.624 25.659,-22.085 26.711,-40.173Z" style="fill:#00acd7;fill-rule:nonzero;"/></g></g></g></g></g><g><g><g><g><path d="M798.821,690.559c-0.842,-0 -1.052,-0.421 -0.631,-1.052l4.416,-5.679c0.421,-0.631 1.473,-1.051 2.314,-1.051l75.086,-0c0.842,-0 1.052,0.631 0.631,1.262l-3.575,5.468c-0.421,0.631 -1.472,1.262 -2.103,1.262l-76.138,-0.21Z" style="fill:#00acd7;fill-rule:nonzero;"/></g></g></g><g><g><g><path d="M767.061,709.909c-0.841,-0 -1.051,-0.421 -0.631,-1.052l4.417,-5.679c0.421,-0.631 1.473,-1.051 2.314,-1.051l95.908,-0c0.842,-0 1.262,0.631 1.052,1.261l-1.683,5.048c-0.21,0.842 -1.051,1.262 -1.892,1.262l-99.485,0.211Z" style="fill:#00acd7;fill-rule:nonzero;"/></g></g></g><g><g><g><path d="M817.96,729.259c-0.841,-0 -1.051,-0.631 -0.631,-1.262l2.945,-5.259c0.421,-0.631 1.262,-1.261 2.103,-1.261l42.065,-0c0.842,-0 1.262,0.63 1.262,1.472l-0.42,5.048c-0,0.841 -0.842,1.472 -1.473,1.472l-45.851,-0.21Z" style="fill:#00acd7;fill-rule:nonzero;"/></g></g></g><g><g id="CXHf1q_3_2" serif:id="CXHf1q_3_"><g><g><path d="M1036.28,686.773c-13.25,3.365 -22.294,5.889 -35.334,9.254c-3.155,0.841 -3.366,1.052 -6.1,-2.103c-3.155,-3.576 -5.468,-5.889 -9.885,-7.993c-13.251,-6.52 -26.081,-4.627 -38.069,3.155c-14.302,9.255 -21.664,22.926 -21.453,39.962c0.21,16.826 11.778,30.708 28.394,33.021c14.302,1.893 26.29,-3.155 35.755,-13.881c1.893,-2.314 3.576,-4.838 5.679,-7.782l-40.593,-0c-4.417,-0 -5.468,-2.734 -3.996,-6.31c2.734,-6.52 7.782,-17.457 10.726,-22.925c0.631,-1.262 2.104,-3.366 5.259,-3.366l76.558,0c-0.421,5.679 -0.421,11.358 -1.262,17.037c-2.313,15.143 -7.992,29.025 -17.247,41.224c-15.143,19.98 -34.914,32.39 -59.942,35.755c-20.612,2.734 -39.752,-1.262 -56.578,-13.882c-15.564,-11.778 -24.398,-27.342 -26.711,-46.692c-2.735,-22.925 3.996,-43.537 17.877,-61.625c14.933,-19.561 34.704,-31.97 58.892,-36.387c19.77,-3.575 38.699,-1.262 55.736,10.306c11.147,7.362 19.139,17.457 24.398,29.656c1.262,1.893 0.42,2.945 -2.104,3.576Z" style="fill:#00acd7;fill-rule:nonzero;"/></g><g><path d="M1105.9,803.083c-19.139,-0.421 -36.597,-5.889 -51.319,-18.509c-12.41,-10.726 -20.192,-24.398 -22.716,-40.593c-3.785,-23.766 2.735,-44.799 17.037,-63.518c15.354,-20.191 33.862,-30.708 58.891,-35.124c21.453,-3.786 41.645,-1.683 59.943,10.726c16.616,11.358 26.922,26.712 29.656,46.903c3.575,28.394 -4.627,51.53 -24.188,71.3c-13.881,14.092 -30.918,22.926 -50.478,26.922c-5.679,1.052 -11.357,1.262 -16.826,1.893Zm50.058,-84.972c-0.211,-2.734 -0.211,-4.837 -0.631,-6.94c-3.786,-20.823 -22.926,-32.601 -42.907,-27.974c-19.56,4.417 -32.18,16.826 -36.807,36.597c-3.786,16.405 4.207,33.021 19.35,39.751c11.568,5.048 23.136,4.417 34.283,-1.261c16.616,-8.624 25.66,-22.085 26.712,-40.173Z" style="fill:#00acd7;fill-rule:nonzero;"/></g></g></g></g></g><path d="M785.4,342.721c-3.094,-3.094 -8.117,-3.094 -11.211,0l-11.211,11.211c-3.094,3.094 -3.094,8.117 -0,11.211l248.452,248.453c3.094,3.093 8.118,3.093 11.211,-0l11.212,-11.211c3.093,-3.094 3.093,-8.118 -0,-11.212l-248.453,-248.452Z" style="fill:#00acd7;"/></g></svg>